<svg width="97" height="21" fill="none" xmlns="http://www.w3.org/2000/svg"><path d="M0 18.274l2.34-2.61c1.172 1.305 2.76 1.74 4.476 1.74 2.134 0 3.279-.9 3.279-2.553 0-.725-.182-1.334-.572-1.74-.365-.377-.781-.58-1.64-.725l-2.237-.348c-1.587-.261-2.759-.812-3.59-1.711C1.17 9.34.727 8.005.727 6.266.728 2.58 3.174 0 7.181 0c2.55 0 4.397.696 5.984 2.408l-2.29 2.523C9.705 3.683 8.3 3.51 7.076 3.51c-1.925 0-2.862 1.19-2.862 2.61 0 .522.157 1.073.547 1.479.365.378.963.696 1.717.813l2.186.348c1.69.261 2.758.783 3.538 1.595.99 1.044 1.431 2.552 1.431 4.38 0 4.003-2.992 6.265-6.869 6.265-2.81 0-4.943-.667-6.764-2.726zm17.042 2.552V.173h12.202v3.598h-8.586v4.844h7.312v3.596h-7.312v5.018h8.586v3.597H17.042zm15.742 0V.173h12.202v3.598H36.4v4.844h7.312v3.596H36.4v5.018h8.586v3.597H32.784zm42.724 0L71.89 12.59h-2.602v8.237h-3.616V.173h7.259c3.772 0 6.01 2.873 6.01 6.324 0 2.9-1.587 4.7-3.383 5.425l4.138 8.904h-4.19zm-2.81-17.055h-3.41v5.453h3.41c1.586 0 2.628-1.131 2.628-2.727 0-1.595-1.042-2.726-2.629-2.726zm20.529 17.055l-1.093-3.655h-6.582l-1.12 3.655H80.66L87.399.173h2.835L97 20.826h-3.773zm-4.32-14.56l-2.341 7.512h4.605l-2.263-7.513zM60.104 2.147C58.881.784 57.137.173 55.212.173h-6.686v20.653h4.054c1.396-4.01 3.51-8.386 2.07-14.868 1.919 6.76.02 11.056-1.32 14.868h1.882c1.925 0 3.669-.609 4.892-1.972 2.082-2.321 1.873-5.338 1.873-8.441 0-3.103.209-5.946-1.873-8.266zm-5.58 16.24c1.037-2.596 2.128-6.758.576-11.862 2.076 2.601 2.398 6.445 1.958 8.199 3.758-4.211-.104-9.13-3.958-11.227 2.457 4.608 2.087 8.95.178 14.172-5.994-4.198 1.123-9.547-.894-15.303 8.705 3.732 10.257 12.125 2.14 16.02z" fill="#359740"/></svg>